{
    "asset" : {
        "generator" : "Khronos glTF Blender I/O v1.7.33",
        "version" : "2.0"
    },
    "scene" : 0,
    "scenes" : [
        {
            "name" : "Scene",
            "nodes" : [
                0
            ]
        }
    ],
    "nodes" : [
        {
            "mesh" : 0,
            "name" : "Cube",
            "scale" : [
                3.408729076385498,
                0.2885764241218567,
                2.1427345275878906
            ],
            "translation" : [
                -0.21963053941726685,
                0.27590101957321167,
                0.03005087375640869
            ]
        }
    ],
    "materials" : [
        {
            "doubleSided" : true,
            "name" : "pasted__lambert2.002",
            "pbrMetallicRoughness" : {
                "baseColorTexture" : {
                    "index" : 0
                },
                "metallicFactor" : 0
            }
        }
    ],
    "meshes" : [
        {
            "name" : "Cube.004",
            "primitives" : [
                {
                    "attributes" : {
                        "POSITION" : 0,
                        "NORMAL" : 1,
                        "TEXCOORD_0" : 2,
                        "COLOR_0" : 3
                    },
                    "indices" : 4,
                    "material" : 0
                }
            ]
        }
    ],
    "textures" : [
        {
            "sampler" : 0,
            "source" : 0
        }
    ],
    "images" : [
        {
            "mimeType" : "image/jpeg",
            "name" : "diffuse",
            "uri" : "diffuse.jpg"
        }
    ],
    "accessors" : [
        {
            "bufferView" : 0,
            "componentType" : 5126,
            "count" : 263,
            "max" : [
                1,
                24.174589157104492,
                1.7849514484405518
            ],
            "min" : [
                -1,
                -1.1399595737457275,
                -1.7849513292312622
            ],
            "type" : "VEC3"
        },
        {
            "bufferView" : 1,
            "componentType" : 5126,
            "count" : 263,
            "type" : "VEC3"
        },
        {
            "bufferView" : 2,
            "componentType" : 5126,
            "count" : 263,
            "type" : "VEC2"
        },
        {
            "bufferView" : 3,
            "componentType" : 5123,
            "count" : 263,
            "normalized" : true,
            "type" : "VEC4"
        },
        {
            "bufferView" : 4,
            "componentType" : 5123,
            "count" : 348,
            "type" : "SCALAR"
        }
    ],
    "bufferViews" : [
        {
            "buffer" : 0,
            "byteLength" : 3156,
            "byteOffset" : 0
        },
        {
            "buffer" : 0,
            "byteLength" : 3156,
            "byteOffset" : 3156
        },
        {
            "buffer" : 0,
            "byteLength" : 2104,
            "byteOffset" : 6312
        },
        {
            "buffer" : 0,
            "byteLength" : 2104,
            "byteOffset" : 8416
        },
        {
            "buffer" : 0,
            "byteLength" : 696,
            "byteOffset" : 10520
        }
    ],
    "samplers" : [
        {
            "magFilter" : 9729,
            "minFilter" : 9987
        }
    ],
    "buffers" : [
        {
            "byteLength" : 11216,
            "uri" : "scene.bin"
        }
    ]
}
