{
    "asset" : {
        "generator" : "Khronos glTF Blender I/O v1.7.33",
        "version" : "2.0"
    },
    "scene" : 0,
    "scenes" : [
        {
            "name" : "Scene",
            "nodes" : [
                0
            ]
        }
    ],
    "nodes" : [
        {
            "mesh" : 0,
            "name" : "scene",
            "scale" : [
                0.049881983548402786,
                0.0059431190602481365,
                0.06399387866258621
            ],
            "translation" : [
                0,
                0.07530403137207031,
                0
            ]
        }
    ],
    "materials" : [
        {
            "doubleSided" : true,
            "name" : "pasted__lambert2.001",
            "pbrMetallicRoughness" : {
                "baseColorTexture" : {
                    "index" : 0
                },
                "metallicFactor" : 0
            }
        },
        {
            "doubleSided" : true,
            "name" : "pasted__lambert2.002",
            "pbrMetallicRoughness" : {
                "baseColorTexture" : {
                    "index" : 1
                },
                "metallicFactor" : 0
            }
        },
        {
            "doubleSided" : true,
            "name" : "pasted__lambert2.003",
            "pbrMetallicRoughness" : {
                "baseColorTexture" : {
                    "index" : 2
                },
                "metallicFactor" : 0
            }
        },
        {
            "doubleSided" : true,
            "name" : "pasted__lambert2.004",
            "pbrMetallicRoughness" : {
                "baseColorTexture" : {
                    "index" : 3
                },
                "metallicFactor" : 0
            }
        },
        {
            "doubleSided" : true,
            "name" : "pasted__lambert2.005",
            "pbrMetallicRoughness" : {
                "baseColorTexture" : {
                    "index" : 4
                },
                "metallicFactor" : 0
            }
        }
    ],
    "meshes" : [
        {
            "name" : "object.002",
            "primitives" : [
                {
                    "attributes" : {
                        "POSITION" : 0,
                        "NORMAL" : 1,
                        "TEXCOORD_0" : 2,
                        "COLOR_0" : 3
                    },
                    "indices" : 4,
                    "material" : 0
                },
                {
                    "attributes" : {
                        "POSITION" : 5,
                        "NORMAL" : 6,
                        "TEXCOORD_0" : 7,
                        "COLOR_0" : 8
                    },
                    "indices" : 9,
                    "material" : 1
                },
                {
                    "attributes" : {
                        "POSITION" : 10,
                        "NORMAL" : 11,
                        "TEXCOORD_0" : 12,
                        "COLOR_0" : 13
                    },
                    "indices" : 14,
                    "material" : 2
                },
                {
                    "attributes" : {
                        "POSITION" : 15,
                        "NORMAL" : 16,
                        "TEXCOORD_0" : 17,
                        "COLOR_0" : 18
                    },
                    "indices" : 19,
                    "material" : 3
                },
                {
                    "attributes" : {
                        "POSITION" : 20,
                        "NORMAL" : 21,
                        "TEXCOORD_0" : 22,
                        "COLOR_0" : 23
                    },
                    "indices" : 24,
                    "material" : 4
                }
            ]
        }
    ],
    "textures" : [
        {
            "sampler" : 0,
            "source" : 0
        },
        {
            "sampler" : 0,
            "source" : 0
        },
        {
            "sampler" : 0,
            "source" : 0
        },
        {
            "sampler" : 0,
            "source" : 0
        },
        {
            "sampler" : 0,
            "source" : 0
        }
    ],
    "images" : [
        {
            "mimeType" : "image/jpeg",
            "name" : "diffuse",
            "uri" : "diffuse.jpg"
        }
    ],
    "accessors" : [
        {
            "bufferView" : 0,
            "componentType" : 5126,
            "count" : 292,
            "max" : [
                56.464599609375,
                184.81637573242188,
                26.881153106689453
            ],
            "min" : [
                -55.50181579589844,
                -160.90042114257812,
                -30.921920776367188
            ],
            "type" : "VEC3"
        },
        {
            "bufferView" : 1,
            "componentType" : 5126,
            "count" : 292,
            "type" : "VEC3"
        },
        {
            "bufferView" : 2,
            "componentType" : 5126,
            "count" : 292,
            "type" : "VEC2"
        },
        {
            "bufferView" : 3,
            "componentType" : 5123,
            "count" : 292,
            "normalized" : true,
            "type" : "VEC4"
        },
        {
            "bufferView" : 4,
            "componentType" : 5123,
            "count" : 456,
            "type" : "SCALAR"
        },
        {
            "bufferView" : 5,
            "componentType" : 5126,
            "count" : 200,
            "max" : [
                30.98011016845703,
                123.20718383789062,
                1.4516364336013794
            ],
            "min" : [
                23.963611602783203,
                9.324302673339844,
                -3.0485007762908936
            ],
            "type" : "VEC3"
        },
        {
            "bufferView" : 6,
            "componentType" : 5126,
            "count" : 200,
            "type" : "VEC3"
        },
        {
            "bufferView" : 7,
            "componentType" : 5126,
            "count" : 200,
            "type" : "VEC2"
        },
        {
            "bufferView" : 8,
            "componentType" : 5123,
            "count" : 200,
            "normalized" : true,
            "type" : "VEC4"
        },
        {
            "bufferView" : 9,
            "componentType" : 5123,
            "count" : 312,
            "type" : "SCALAR"
        },
        {
            "bufferView" : 10,
            "componentType" : 5126,
            "count" : 200,
            "max" : [
                16.578968048095703,
                123.20718383789062,
                3.568551540374756
            ],
            "min" : [
                10.187784194946289,
                9.324302673339844,
                -1.5488876104354858
            ],
            "type" : "VEC3"
        },
        {
            "bufferView" : 11,
            "componentType" : 5126,
            "count" : 200,
            "type" : "VEC3"
        },
        {
            "bufferView" : 12,
            "componentType" : 5126,
            "count" : 200,
            "type" : "VEC2"
        },
        {
            "bufferView" : 13,
            "componentType" : 5123,
            "count" : 200,
            "normalized" : true,
            "type" : "VEC4"
        },
        {
            "bufferView" : 14,
            "componentType" : 5123,
            "count" : 312,
            "type" : "SCALAR"
        },
        {
            "bufferView" : 15,
            "componentType" : 5126,
            "count" : 200,
            "max" : [
                -28.318748474121094,
                123.20718383789062,
                4.343026161193848
            ],
            "min" : [
                -31.818309783935547,
                9.324302673339844,
                -1.5319340229034424
            ],
            "type" : "VEC3"
        },
        {
            "bufferView" : 16,
            "componentType" : 5126,
            "count" : 200,
            "type" : "VEC3"
        },
        {
            "bufferView" : 17,
            "componentType" : 5126,
            "count" : 200,
            "type" : "VEC2"
        },
        {
            "bufferView" : 18,
            "componentType" : 5123,
            "count" : 200,
            "normalized" : true,
            "type" : "VEC4"
        },
        {
            "bufferView" : 19,
            "componentType" : 5123,
            "count" : 312,
            "type" : "SCALAR"
        },
        {
            "bufferView" : 20,
            "componentType" : 5126,
            "count" : 200,
            "max" : [
                -17.59309959411621,
                123.20718383789062,
                0.9141316413879395
            ],
            "min" : [
                -25.037216186523438,
                9.324302673339844,
                -1.047370195388794
            ],
            "type" : "VEC3"
        },
        {
            "bufferView" : 21,
            "componentType" : 5126,
            "count" : 200,
            "type" : "VEC3"
        },
        {
            "bufferView" : 22,
            "componentType" : 5126,
            "count" : 200,
            "type" : "VEC2"
        },
        {
            "bufferView" : 23,
            "componentType" : 5123,
            "count" : 200,
            "normalized" : true,
            "type" : "VEC4"
        },
        {
            "bufferView" : 24,
            "componentType" : 5123,
            "count" : 312,
            "type" : "SCALAR"
        }
    ],
    "bufferViews" : [
        {
            "buffer" : 0,
            "byteLength" : 3504,
            "byteOffset" : 0
        },
        {
            "buffer" : 0,
            "byteLength" : 3504,
            "byteOffset" : 3504
        },
        {
            "buffer" : 0,
            "byteLength" : 2336,
            "byteOffset" : 7008
        },
        {
            "buffer" : 0,
            "byteLength" : 2336,
            "byteOffset" : 9344
        },
        {
            "buffer" : 0,
            "byteLength" : 912,
            "byteOffset" : 11680
        },
        {
            "buffer" : 0,
            "byteLength" : 2400,
            "byteOffset" : 12592
        },
        {
            "buffer" : 0,
            "byteLength" : 2400,
            "byteOffset" : 14992
        },
        {
            "buffer" : 0,
            "byteLength" : 1600,
            "byteOffset" : 17392
        },
        {
            "buffer" : 0,
            "byteLength" : 1600,
            "byteOffset" : 18992
        },
        {
            "buffer" : 0,
            "byteLength" : 624,
            "byteOffset" : 20592
        },
        {
            "buffer" : 0,
            "byteLength" : 2400,
            "byteOffset" : 21216
        },
        {
            "buffer" : 0,
            "byteLength" : 2400,
            "byteOffset" : 23616
        },
        {
            "buffer" : 0,
            "byteLength" : 1600,
            "byteOffset" : 26016
        },
        {
            "buffer" : 0,
            "byteLength" : 1600,
            "byteOffset" : 27616
        },
        {
            "buffer" : 0,
            "byteLength" : 624,
            "byteOffset" : 29216
        },
        {
            "buffer" : 0,
            "byteLength" : 2400,
            "byteOffset" : 29840
        },
        {
            "buffer" : 0,
            "byteLength" : 2400,
            "byteOffset" : 32240
        },
        {
            "buffer" : 0,
            "byteLength" : 1600,
            "byteOffset" : 34640
        },
        {
            "buffer" : 0,
            "byteLength" : 1600,
            "byteOffset" : 36240
        },
        {
            "buffer" : 0,
            "byteLength" : 624,
            "byteOffset" : 37840
        },
        {
            "buffer" : 0,
            "byteLength" : 2400,
            "byteOffset" : 38464
        },
        {
            "buffer" : 0,
            "byteLength" : 2400,
            "byteOffset" : 40864
        },
        {
            "buffer" : 0,
            "byteLength" : 1600,
            "byteOffset" : 43264
        },
        {
            "buffer" : 0,
            "byteLength" : 1600,
            "byteOffset" : 44864
        },
        {
            "buffer" : 0,
            "byteLength" : 624,
            "byteOffset" : 46464
        }
    ],
    "samplers" : [
        {
            "magFilter" : 9729,
            "minFilter" : 9987
        }
    ],
    "buffers" : [
        {
            "byteLength" : 47088,
            "uri" : "scene.bin"
        }
    ]
}
