{
    "asset" : {
        "generator" : "Khronos glTF Blender I/O v3.2.43",
        "version" : "2.0"
    },
    "scene" : 0,
    "scenes" : [
        {
            "name" : "Scene",
            "nodes" : [
                1
            ]
        }
    ],
    "nodes" : [
        {
            "mesh" : 0,
            "name" : "scene",
            "scale" : [
                1.5743017196655273,
                0.18756800889968872,
                2.019681453704834
            ],
            "translation" : [
                0,
                7.011593818664551,
                0
            ]
        },
        {
            "children" : [
                0
            ],
            "name" : "deafult -temlate",
            "scale" : [
                2.3772428035736084,
                2.3772428035736084,
                2.3772428035736084
            ],
            "translation" : [
                0,
                -37.85975646972656,
                0
            ]
        }
    ],
    "materials" : [
        {
            "doubleSided" : true,
            "name" : "pasted__lambert2.001",
            "pbrMetallicRoughness" : {
                "baseColorTexture" : {
                    "index" : 0
                },
                "metallicFactor" : 0
            }
        }
    ],
    "meshes" : [
        {
            "name" : "object.002",
            "primitives" : [
                {
                    "attributes" : {
                        "POSITION" : 0,
                        "NORMAL" : 1,
                        "TEXCOORD_0" : 2,
                        "COLOR_0" : 3
                    },
                    "indices" : 4,
                    "material" : 0
                }
            ]
        }
    ],
    "textures" : [
        {
            "sampler" : 0,
            "source" : 0
        }
    ],
    "images" : [
        {
            "mimeType" : "image/png",
            "name" : "diffuse",
            "uri" : "diffuse.png"
        }
    ],
    "accessors" : [
        {
            "bufferView" : 0,
            "componentType" : 5126,
            "count" : 72992,
            "max" : [
                19.390472412109375,
                78.47862243652344,
                17.0511531829834
            ],
            "min" : [
                -19.390472412109375,
                -17.185096740722656,
                -17.0511531829834
            ],
            "type" : "VEC3"
        },
        {
            "bufferView" : 1,
            "componentType" : 5126,
            "count" : 72992,
            "type" : "VEC3"
        },
        {
            "bufferView" : 2,
            "componentType" : 5126,
            "count" : 72992,
            "type" : "VEC2"
        },
        {
            "bufferView" : 3,
            "componentType" : 5123,
            "count" : 72992,
            "normalized" : true,
            "type" : "VEC4"
        },
        {
            "bufferView" : 4,
            "componentType" : 5125,
            "count" : 105552,
            "type" : "SCALAR"
        }
    ],
    "bufferViews" : [
        {
            "buffer" : 0,
            "byteLength" : 875904,
            "byteOffset" : 0
        },
        {
            "buffer" : 0,
            "byteLength" : 875904,
            "byteOffset" : 875904
        },
        {
            "buffer" : 0,
            "byteLength" : 583936,
            "byteOffset" : 1751808
        },
        {
            "buffer" : 0,
            "byteLength" : 583936,
            "byteOffset" : 2335744
        },
        {
            "buffer" : 0,
            "byteLength" : 422208,
            "byteOffset" : 2919680
        }
    ],
    "samplers" : [
        {
            "magFilter" : 9729,
            "minFilter" : 9987
        }
    ],
    "buffers" : [
        {
            "byteLength" : 3341888,
            "uri" : "scene.bin"
        }
    ]
}
