{
    "asset" : {
        "generator" : "Khronos glTF Blender I/O v1.7.33",
        "version" : "2.0"
    },
    "scene" : 0,
    "scenes" : [
        {
            "name" : "Scene",
            "nodes" : [
                1
            ]
        }
    ],
    "nodes" : [
        {
            "mesh" : 0,
            "name" : "scene",
            "scale" : [
                3.023761034011841,
                1,
                2.949608087539673
            ]
        },
        {
            "children" : [
                0
            ],
            "name" : "deafult -temlate"
        }
    ],
    "materials" : [
        {
            "doubleSided" : true,
            "name" : "pasted__lambert2.001",
            "pbrMetallicRoughness" : {
                "baseColorTexture" : {
                    "index" : 0
                },
                "metallicFactor" : 0
            }
        }
    ],
    "meshes" : [
        {
            "name" : "object.002",
            "primitives" : [
                {
                    "attributes" : {
                        "POSITION" : 0,
                        "NORMAL" : 1,
                        "TEXCOORD_0" : 2,
                        "COLOR_0" : 3
                    },
                    "indices" : 4,
                    "material" : 0
                }
            ]
        }
    ],
    "textures" : [
        {
            "sampler" : 0,
            "source" : 0
        }
    ],
    "images" : [
        {
            "mimeType" : "image/png",
            "name" : "diffuse",
            "uri" : "diffuse.png"
        }
    ],
    "accessors" : [
        {
            "bufferView" : 0,
            "componentType" : 5126,
            "count" : 2088,
            "max" : [
                19.390472412109375,
                21.88935661315918,
                17.0511531829834
            ],
            "min" : [
                -19.390472412109375,
                -2.5048694610595703,
                -17.0511531829834
            ],
            "type" : "VEC3"
        },
        {
            "bufferView" : 1,
            "componentType" : 5126,
            "count" : 2088,
            "type" : "VEC3"
        },
        {
            "bufferView" : 2,
            "componentType" : 5126,
            "count" : 2088,
            "type" : "VEC2"
        },
        {
            "bufferView" : 3,
            "componentType" : 5123,
            "count" : 2088,
            "normalized" : true,
            "type" : "VEC4"
        },
        {
            "bufferView" : 4,
            "componentType" : 5123,
            "count" : 3084,
            "type" : "SCALAR"
        }
    ],
    "bufferViews" : [
        {
            "buffer" : 0,
            "byteLength" : 25056,
            "byteOffset" : 0
        },
        {
            "buffer" : 0,
            "byteLength" : 25056,
            "byteOffset" : 25056
        },
        {
            "buffer" : 0,
            "byteLength" : 16704,
            "byteOffset" : 50112
        },
        {
            "buffer" : 0,
            "byteLength" : 16704,
            "byteOffset" : 66816
        },
        {
            "buffer" : 0,
            "byteLength" : 6168,
            "byteOffset" : 83520
        }
    ],
    "samplers" : [
        {
            "magFilter" : 9729,
            "minFilter" : 9987
        }
    ],
    "buffers" : [
        {
            "byteLength" : 89688,
            "uri" : "scene.bin"
        }
    ]
}
