{
    "asset" : {
        "generator" : "Khronos glTF Blender I/O v1.7.33",
        "version" : "2.0"
    },
    "scene" : 0,
    "scenes" : [
        {
            "name" : "Scene",
            "nodes" : [
                1
            ]
        }
    ],
    "nodes" : [
        {
            "mesh" : 0,
            "name" : "scene",
            "scale" : [
                0.7774446606636047,
                0.05939848721027374,
                0.7831246852874756
            ]
        },
        {
            "children" : [
                0
            ],
            "name" : "deafult -temlate",
            "scale" : [
                2.3772428035736084,
                2.3772428035736084,
                2.3772428035736084
            ],
            "translation" : [
                8.4368257522583,
                -37.85975646972656,
                0
            ]
        }
    ],
    "materials" : [
        {
            "doubleSided" : true,
            "name" : "Material.003",
            "pbrMetallicRoughness" : {
                "baseColorTexture" : {
                    "index" : 0
                },
                "metallicFactor" : 0,
                "roughnessFactor" : 0.5
            }
        }
    ],
    "meshes" : [
        {
            "name" : "object.002",
            "primitives" : [
                {
                    "attributes" : {
                        "POSITION" : 0,
                        "NORMAL" : 1,
                        "TEXCOORD_0" : 2,
                        "COLOR_0" : 3
                    },
                    "indices" : 4,
                    "material" : 0
                }
            ]
        }
    ],
    "textures" : [
        {
            "sampler" : 0,
            "source" : 0
        }
    ],
    "images" : [
        {
            "mimeType" : "image/jpeg",
            "name" : "diffuse",
            "uri" : "diffuse.jpg"
        }
    ],
    "accessors" : [
        {
            "bufferView" : 0,
            "componentType" : 5126,
            "count" : 496218,
            "max" : [
                6.81443977355957,
                123.20718383789062,
                3.5842361450195312
            ],
            "min" : [
                -0.2632920742034912,
                14.347618103027344,
                -1.2782620191574097
            ],
            "type" : "VEC3"
        },
        {
            "bufferView" : 1,
            "componentType" : 5126,
            "count" : 496218,
            "type" : "VEC3"
        },
        {
            "bufferView" : 2,
            "componentType" : 5126,
            "count" : 496218,
            "type" : "VEC2"
        },
        {
            "bufferView" : 3,
            "componentType" : 5123,
            "count" : 496218,
            "normalized" : true,
            "type" : "VEC4"
        },
        {
            "bufferView" : 4,
            "componentType" : 5125,
            "count" : 2924970,
            "type" : "SCALAR"
        }
    ],
    "bufferViews" : [
        {
            "buffer" : 0,
            "byteLength" : 5954616,
            "byteOffset" : 0
        },
        {
            "buffer" : 0,
            "byteLength" : 5954616,
            "byteOffset" : 5954616
        },
        {
            "buffer" : 0,
            "byteLength" : 3969744,
            "byteOffset" : 11909232
        },
        {
            "buffer" : 0,
            "byteLength" : 3969744,
            "byteOffset" : 15878976
        },
        {
            "buffer" : 0,
            "byteLength" : 11699880,
            "byteOffset" : 19848720
        }
    ],
    "samplers" : [
        {
            "magFilter" : 9729,
            "minFilter" : 9987
        }
    ],
    "buffers" : [
        {
            "byteLength" : 31548600,
            "uri" : "scene.bin"
        }
    ]
}
